<svg width="120" height="121" viewBox="0 0 120 121" fill="none" xmlns="http://www.w3.org/2000/svg">
<path d="M71.239 105.67C71.7824 105.536 72.2653 105.54 72.6878 105.682C73.1025 105.827 73.4538 106.082 73.7419 106.447C74.03 106.813 74.2568 107.263 74.4223 107.799L73.3357 108.401C73.2299 108.073 73.0997 107.764 72.9452 107.472C72.783 107.183 72.5838 106.96 72.3476 106.805C72.1133 106.657 71.8292 106.624 71.4954 106.707C71.1539 106.791 70.9208 106.948 70.7961 107.176C70.6656 107.414 70.6445 107.712 70.7328 108.069C70.8385 108.496 71.02 108.814 71.2775 109.022C71.5368 109.238 71.8466 109.441 72.2069 109.632L74.1361 110.637C74.5138 110.832 74.8158 111.071 75.0421 111.352C75.2702 111.642 75.4429 112.023 75.56 112.497C75.7309 113.188 75.6655 113.772 75.3637 114.251C75.062 114.729 74.5695 115.053 73.8865 115.222C73.5139 115.314 73.1754 115.344 72.8709 115.312C72.5607 115.29 72.2874 115.201 72.0512 115.045C71.8072 114.892 71.5925 114.673 71.407 114.389C71.2156 114.115 71.0497 113.778 70.9091 113.376L71.9519 112.796C72.0521 113.101 72.1687 113.373 72.302 113.612C72.4371 113.859 72.6132 114.037 72.8301 114.148C73.0412 114.269 73.3098 114.289 73.6358 114.209C73.9618 114.128 74.1959 113.975 74.338 113.751C74.4743 113.536 74.5002 113.257 74.4157 112.916C74.3446 112.629 74.2395 112.403 74.1002 112.24C73.9532 112.079 73.7471 111.928 73.4817 111.788L71.5408 110.785C71.1069 110.563 70.7004 110.268 70.3211 109.901C69.9438 109.541 69.6822 109.066 69.5362 108.476C69.421 108.011 69.4181 107.583 69.5277 107.193C69.6391 106.812 69.8436 106.489 70.1409 106.226C70.4306 105.965 70.7966 105.78 71.239 105.67Z" fill="#B68C2D"/>
<path d="M65.8262 106.685C66.5251 106.598 67.0784 106.67 67.4862 106.902C67.894 107.133 68.1965 107.491 68.3938 107.975C68.592 108.466 68.7331 109.049 68.817 109.724L69.6126 116.121L68.3262 116.281L67.5231 109.825C67.4718 109.412 67.3971 109.038 67.299 108.703C67.2009 108.369 67.0482 108.114 66.8409 107.938C66.6256 107.763 66.3313 107.699 65.9581 107.745C65.5769 107.793 65.3074 107.927 65.1494 108.148C64.9914 108.369 64.9059 108.654 64.8928 109.003C64.8797 109.351 64.8988 109.732 64.9502 110.145L65.7532 116.601L64.4786 116.759L63.683 110.363C63.599 109.688 63.593 109.088 63.6647 108.563C63.7375 108.046 63.9432 107.625 64.2819 107.301C64.6126 106.977 65.1274 106.772 65.8262 106.685Z" fill="#B68C2D"/>
<path d="M62.2221 107.188L62.0643 116.91L61.1401 116.895L58.4844 110.393L58.3796 116.85L57.2514 116.832L57.4092 107.11L58.2734 107.124L60.9621 113.807L61.0699 107.17L62.2221 107.188Z" fill="#B68C2D"/>
<path d="M53.8756 106.651C54.4315 106.72 54.8814 106.896 55.2252 107.181C55.5611 107.464 55.7983 107.828 55.9368 108.273C56.0754 108.717 56.1262 109.219 56.0892 109.779L54.8581 109.953C54.8765 109.609 54.8657 109.273 54.8255 108.946C54.7774 108.617 54.6709 108.338 54.5058 108.108C54.3398 107.886 54.086 107.753 53.7445 107.711C53.395 107.668 53.1212 107.731 52.9229 107.9C52.7156 108.076 52.5894 108.346 52.5443 108.712C52.4902 109.149 52.5463 109.51 52.7124 109.797C52.8776 110.092 53.0944 110.393 53.3628 110.7L54.8061 112.33C55.0894 112.647 55.2864 112.978 55.397 113.322C55.5067 113.674 55.5315 114.093 55.4716 114.577C55.3842 115.284 55.1139 115.807 54.6607 116.146C54.2076 116.485 53.6316 116.611 52.9327 116.525C52.5514 116.478 52.2243 116.385 51.9511 116.246C51.6691 116.115 51.4455 115.934 51.2804 115.704C51.1074 115.473 50.985 115.191 50.9131 114.86C50.8322 114.536 50.798 114.16 50.8103 113.735L51.9923 113.566C51.9768 113.887 51.9886 114.183 52.0277 114.454C52.0658 114.732 52.1663 114.963 52.3293 115.144C52.4834 115.332 52.7273 115.447 53.0608 115.489C53.3944 115.53 53.6678 115.471 53.881 115.312C54.0852 115.16 54.209 114.909 54.2522 114.559C54.2886 114.266 54.2709 114.017 54.1991 113.815C54.1195 113.612 53.9807 113.397 53.7829 113.171L52.3276 111.539C52.0016 111.177 51.7271 110.756 51.5041 110.277C51.2801 109.805 51.2055 109.268 51.2801 108.664C51.3391 108.188 51.4894 107.787 51.7312 107.462C51.972 107.145 52.2784 106.917 52.6504 106.778C53.0145 106.637 53.4229 106.595 53.8756 106.651Z" fill="#B68C2D"/>
<path d="M50.8344 106.287L48.6257 115.756L44.9551 114.899L45.1842 113.917L47.5338 114.465L48.2646 111.333L46.3591 110.888L46.5773 109.953L48.4827 110.397L49.2926 106.925L46.9195 106.372L47.1404 105.425L50.8344 106.287Z" fill="#B68C2D"/>
<path d="M45.3164 104.823L42.4878 113.066L44.0432 113.6L43.716 114.554L39.3675 113.061L39.6947 112.108L41.2048 112.626L44.0334 104.383L45.3164 104.823Z" fill="#B68C2D"/>
<path d="M37.5456 101.349C38.0393 101.614 38.3951 101.941 38.613 102.33C38.8239 102.716 38.9137 103.141 38.8825 103.605C38.8513 104.07 38.7173 104.556 38.4808 105.065L37.2698 104.783C37.4113 104.469 37.5224 104.152 37.6032 103.832C37.677 103.508 37.6784 103.209 37.6075 102.935C37.5328 102.668 37.3438 102.453 37.0406 102.29C36.7303 102.124 36.4522 102.084 36.2063 102.17C35.9495 102.259 35.7341 102.466 35.5601 102.79C35.3521 103.178 35.2738 103.536 35.3253 103.863C35.3729 104.197 35.4665 104.556 35.6058 104.94L36.3635 106.981C36.5132 107.379 36.5775 107.758 36.5564 108.119C36.5315 108.488 36.4037 108.887 36.1729 109.317C35.8362 109.944 35.3954 110.335 34.8504 110.487C34.3054 110.64 33.7226 110.55 33.102 110.217C32.7635 110.035 32.4919 109.83 32.2872 109.603C32.0717 109.378 31.9285 109.129 31.8576 108.855C31.7797 108.577 31.767 108.27 31.8196 107.935C31.8613 107.603 31.9648 107.241 32.13 106.848L33.293 107.118C33.1629 107.412 33.0671 107.692 33.0058 107.958C32.9406 108.232 32.9513 108.483 33.0378 108.711C33.1136 108.943 33.2995 109.138 33.5957 109.296C33.8919 109.455 34.1681 109.499 34.4243 109.428C34.6697 109.36 34.8757 109.17 35.0421 108.86C35.1821 108.599 35.2551 108.361 35.2613 108.147C35.2604 107.928 35.2085 107.678 35.1056 107.396L34.3374 105.349C34.1643 104.893 34.0603 104.401 34.0253 103.874C33.9865 103.354 34.1109 102.826 34.3984 102.29C34.6254 101.867 34.9102 101.547 35.253 101.331C35.5919 101.123 35.96 101.021 36.3573 101.025C36.7476 101.025 37.1437 101.133 37.5456 101.349Z" fill="#B68C2D"/>
<path d="M32.8528 98.4763C33.3909 98.8569 33.7465 99.2659 33.9195 99.7033C34.0925 100.141 34.111 100.602 33.9749 101.086C33.8343 101.578 33.5783 102.086 33.2069 102.611L31.0696 105.632C30.6982 106.157 30.3114 106.558 29.909 106.835C29.4955 107.113 29.0616 107.239 28.6074 107.214C28.1419 107.19 27.6402 106.987 27.1021 106.607C26.564 106.226 26.2094 105.823 26.0383 105.396C25.8672 104.97 25.8451 104.521 25.9718 104.05C26.092 103.574 26.3378 103.073 26.7091 102.548L28.8534 99.5165C29.2201 98.9981 29.6126 98.5964 30.0308 98.3114C30.4424 98.0217 30.8823 97.88 31.3504 97.8862C31.8139 97.899 32.3147 98.0957 32.8528 98.4763ZM32.2332 99.3523C31.9379 99.1435 31.673 99.0447 31.4386 99.0561C31.1994 99.074 30.9771 99.1727 30.7714 99.3521C30.5611 99.5381 30.3515 99.7787 30.1426 100.074L27.6711 103.568C27.4622 103.864 27.3098 104.135 27.2137 104.382C27.1131 104.636 27.0987 104.872 27.1708 105.09C27.2381 105.315 27.4195 105.532 27.7148 105.74C28.0101 105.949 28.2782 106.05 28.5193 106.044C28.7491 106.039 28.9668 105.947 29.1725 105.767C29.3735 105.594 29.5785 105.36 29.7873 105.065L32.2589 101.571C32.4678 101.276 32.6248 100.998 32.7302 100.738C32.8308 100.484 32.8498 100.241 32.787 100.01C32.7131 99.7804 32.5285 99.5612 32.2332 99.3523Z" fill="#B68C2D"/>
<path d="M29.9589 96.3913L23.4445 103.586L21.9966 102.275C21.517 101.841 21.1792 101.417 20.9833 101.002C20.782 100.594 20.736 100.18 20.8454 99.7621C20.9434 99.3443 21.1988 98.9075 21.6117 98.4515C21.8637 98.1732 22.1238 97.9453 22.3921 97.768C22.6551 97.5966 22.9241 97.4899 23.1992 97.448C23.4688 97.412 23.7424 97.4549 24.02 97.5769L26.2637 93.0456L27.2319 93.9223L25.1173 98.1502L25.899 98.8579L28.9552 95.4825L29.9589 96.3913ZM25.2476 99.5774L24.8656 99.2316C24.5814 98.9743 24.3183 98.8007 24.0763 98.7109C23.8343 98.6211 23.5941 98.6245 23.3557 98.7212C23.1173 98.8179 22.8587 99.0202 22.5799 99.3281C22.1992 99.7486 22.0027 100.12 21.9905 100.443C21.9729 100.772 22.1921 101.143 22.6481 101.556L23.0922 101.958L25.2476 99.5774Z" fill="#B68C2D"/>
<path d="M25.6231 92.3118L18.3141 98.7238L15.8284 95.8905L16.5864 95.2255L18.1775 97.0392L20.5958 94.9177L19.3055 93.4469L20.0274 92.8136L21.3177 94.2844L23.9977 91.9333L22.3907 90.1015L23.1216 89.4603L25.6231 92.3118Z" fill="#B68C2D"/>
<path d="M22.6152 88.8303L14.6331 94.3821L14.1053 93.6233L17.8306 87.6693L12.5289 91.3568L11.8846 90.4305L19.8667 84.8786L20.3602 85.5882L16.5077 91.6746L21.9572 87.8842L22.6152 88.8303Z" fill="#B68C2D"/>
<path d="M18.753 82.8681L11.0764 86.9929L11.8547 88.4415L10.9665 88.9188L8.79049 84.869L9.6787 84.3917L10.4343 85.798L18.111 81.6732L18.753 82.8681Z" fill="#B68C2D"/>
<path d="M16.2148 77.2322C16.4565 77.8423 16.5305 78.3767 16.4368 78.8356C16.3431 79.2945 16.1078 79.689 15.7307 80.0191C15.3462 80.3522 14.8563 80.6366 14.2611 80.8724L10.835 82.2296C10.2398 82.4653 9.69923 82.5891 9.21326 82.6009C8.7169 82.6081 8.28639 82.4774 7.92173 82.2087C7.54668 81.9355 7.23831 81.4939 6.99664 80.8838C6.75497 80.2737 6.67872 79.7444 6.7679 79.2959C6.85707 78.8475 7.08275 78.4611 7.44494 78.1369C7.80418 77.8052 8.2814 77.5215 8.8766 77.2857L12.3139 75.9241C12.9016 75.6913 13.4474 75.5697 13.9512 75.5595C14.4521 75.5419 14.896 75.663 15.283 75.9229C15.6625 76.1857 15.9731 76.6221 16.2148 77.2322ZM15.2215 77.6256C15.0889 77.2908 14.9218 77.0644 14.7201 76.9463C14.5109 76.8312 14.2718 76.7925 14.0027 76.8303C13.7262 76.8709 13.4205 76.9576 13.0857 77.0902L9.12389 78.6596C8.78909 78.7922 8.51444 78.9355 8.29994 79.0893C8.078 79.2461 7.93768 79.4351 7.87899 79.6563C7.81285 79.8805 7.8461 80.1599 7.97872 80.4947C8.11135 80.8295 8.27998 81.0597 8.48464 81.1852C8.6789 81.3062 8.91058 81.3479 9.17968 81.3101C9.44134 81.2753 9.73957 81.1916 10.0744 81.059L14.0362 79.4896C14.371 79.357 14.653 79.2108 14.8824 79.0511C15.1044 78.8943 15.2521 78.7024 15.3257 78.4753C15.3889 78.2437 15.3542 77.9604 15.2215 77.6256Z" fill="#B68C2D"/>
<path d="M14.2283 71.502L4.69979 73.3493L4.32803 71.4319C4.20487 70.7966 4.18927 70.2545 4.28122 69.8054C4.36532 69.3578 4.57659 68.9995 4.91501 68.7304C5.24407 68.4551 5.71054 68.2589 6.3144 68.1418C6.683 68.0703 7.02782 68.0441 7.34888 68.0633C7.6621 68.0839 7.9413 68.16 8.1865 68.2915C8.42385 68.4245 8.61695 68.623 8.7658 68.8871L13.2795 66.6083L13.5281 67.8905L9.29972 70.0041L9.50042 71.0393L13.9706 70.1727L14.2283 71.502ZM8.54757 71.2241L8.4495 70.7182C8.37652 70.3418 8.27017 70.0451 8.13044 69.8281C7.99072 69.611 7.7965 69.4697 7.54778 69.404C7.29907 69.3383 6.97081 69.3449 6.563 69.424C6.00619 69.532 5.62599 69.7115 5.42241 69.9625C5.21098 70.2151 5.16381 70.6433 5.28089 71.2471L5.39492 71.8353L8.54757 71.2241Z" fill="#B68C2D"/>
<path d="M13.1591 65.6307L3.47021 66.4443L3.15482 62.6883L4.15959 62.6039L4.36149 65.0082L7.56719 64.739L7.40347 62.7893L8.3604 62.7089L8.52412 64.6587L12.0767 64.3604L11.8728 61.9322L12.8417 61.8508L13.1591 65.6307Z" fill="#B68C2D"/>
<path d="M12.9745 58.7264C12.9629 59.2865 12.8333 59.7521 12.5855 60.1232C12.3379 60.4862 12.0001 60.7594 11.5721 60.9427C11.1441 61.126 10.6498 61.2279 10.0891 61.2483L9.78974 60.0416C10.1343 60.0246 10.4674 59.9795 10.789 59.9061C11.1109 59.8246 11.3778 59.6901 11.5898 59.5023C11.7938 59.3144 11.8993 59.0485 11.9064 58.7044C11.9136 58.3524 11.823 58.0864 11.6347 57.9064C11.4384 57.7183 11.1563 57.6204 10.7883 57.6128C10.3482 57.6038 9.99412 57.6965 9.72598 57.8911C9.44983 58.0855 9.17262 58.332 8.89433 58.6304L7.42057 60.2329C7.13395 60.5471 6.82506 60.7769 6.4939 60.9222C6.15474 61.0673 5.74113 61.1348 5.25308 61.1247C4.54102 61.1101 3.99317 60.8947 3.60953 60.4785C3.2259 60.0624 3.04133 59.5023 3.05584 58.7983C3.06375 58.4142 3.12267 58.0793 3.23262 57.7934C3.33472 57.4993 3.49176 57.2584 3.70374 57.0707C3.91588 56.875 4.18312 56.7244 4.50545 56.619C4.81996 56.5054 5.18964 56.433 5.6145 56.4017L5.9028 57.5602C5.58228 57.5777 5.28926 57.6196 5.02375 57.6862C4.75024 57.7526 4.53159 57.8762 4.36778 58.0569C4.19614 58.2295 4.10686 58.4837 4.09994 58.8198C4.09302 59.1558 4.17959 59.4217 4.35965 59.6175C4.53187 59.8052 4.794 59.9026 5.14604 59.9099C5.44207 59.916 5.68708 59.873 5.88107 59.7809C6.07523 59.6809 6.27463 59.5209 6.47927 59.301L7.95327 57.6865C8.28088 57.3251 8.67159 57.009 9.1254 56.7382C9.57121 56.4672 10.0981 56.338 10.7062 56.3505C11.1863 56.3604 11.6002 56.469 11.9481 56.6762C12.2881 56.8833 12.5464 57.1648 12.7232 57.5206C12.9001 57.8685 12.9839 58.2704 12.9745 58.7264Z" fill="#B68C2D"/>
<path d="M13.1535 54.5939L4.50967 53.4851L4.30043 55.1162L3.30031 54.9879L3.88528 50.4279L4.88539 50.5562L4.68226 52.1397L13.3261 53.2485L13.1535 54.5939Z" fill="#B68C2D"/>
<path d="M13.5458 51.6931L4.58941 47.4541L4.89034 46.1849L14.7993 46.4069L14.5039 47.6527L12.0264 47.5203L11.5709 49.4415L13.8385 50.4588L13.5458 51.6931ZM10.6692 49.0433L11.0419 47.4714L6.60423 47.2554L10.6692 49.0433Z" fill="#B68C2D"/>
<path d="M15.9241 43.5255C15.6781 44.1854 15.3581 44.6426 14.9643 44.8971C14.5704 45.1517 14.1136 45.2546 13.5936 45.2059C13.0662 45.1545 12.4839 45.0099 11.8465 44.7722L5.80678 42.5201L6.25972 41.3054L12.3557 43.5785C12.7456 43.7239 13.1116 43.8305 13.4535 43.8982C13.7955 43.966 14.0924 43.9485 14.3442 43.846C14.5987 43.7359 14.7917 43.5047 14.9231 43.1523C15.0573 42.7924 15.0629 42.4912 14.9397 42.2489C14.8166 42.0065 14.6036 41.799 14.3007 41.6263C13.9979 41.4536 13.6515 41.2945 13.2616 41.1491L7.16562 38.876L7.61438 37.6725L13.6541 39.9247C14.2915 40.1624 14.8263 40.4344 15.2587 40.7408C15.6835 41.0444 15.9614 41.4214 16.0925 41.8716C16.2263 42.3144 16.1702 42.8657 15.9241 43.5255Z" fill="#B68C2D"/>
<path d="M17.1966 40.0651L8.599 35.5244L9.51274 33.7943C9.81545 33.2211 10.1437 32.7881 10.4974 32.4953C10.8441 32.1988 11.234 32.0517 11.6671 32.0542C12.0968 32.0459 12.5841 32.1856 13.129 32.4733C13.4616 32.649 13.7472 32.8451 13.9858 33.0616C14.2173 33.2744 14.3875 33.509 14.4963 33.7656C14.5981 34.0185 14.6241 34.2947 14.5745 34.5943L19.5286 35.6496L18.9176 36.8065L14.2899 35.8015L13.7966 36.7355L17.8301 38.8657L17.1966 40.0651ZM12.9369 36.2814L13.1779 35.825C13.3573 35.4854 13.4606 35.187 13.4878 34.9298C13.515 34.6727 13.4521 34.4404 13.2992 34.233C13.1464 34.0255 12.8859 33.8246 12.518 33.6303C12.0156 33.365 11.6061 33.2664 11.2896 33.3345C10.9659 33.3989 10.6603 33.7035 10.3725 34.2484L10.0922 34.7791L12.9369 36.2814Z" fill="#B68C2D"/>
<path d="M19.7426 35.3048L12.9331 28.0639L13.6793 26.9892L22.8505 30.8282L22.118 31.8832L19.8532 30.8516L18.7237 32.4786L20.4683 34.2596L19.7426 35.3048ZM18.0277 31.7762L18.9518 30.445L14.8873 28.6169L18.0277 31.7762Z" fill="#B68C2D"/>
<path d="M23.2394 30.3774L15.9855 23.903L16.6009 23.2134L23.2574 25.4539L18.4393 21.1537L19.1907 20.3119L26.4446 26.7862L25.8691 27.431L19.0544 25.0975L24.0067 29.5176L23.2394 30.3774Z" fill="#B68C2D"/>
<path d="M28.1095 25.1693L22.2706 18.6333L21.0373 19.7351L20.3617 18.9789L23.8097 15.8986L24.4853 16.6549L23.2879 17.7245L29.1268 24.2605L28.1095 25.1693Z" fill="#B68C2D"/>
<path d="M41.6394 16.6265C41.124 16.8506 40.6453 16.9274 40.2033 16.857C39.7686 16.7833 39.3781 16.5898 39.0317 16.2765C38.6854 15.9631 38.3854 15.5551 38.1319 15.0526L39.1066 14.2743C39.2663 14.5812 39.447 14.866 39.6487 15.1284C39.8577 15.3877 40.0922 15.5747 40.3521 15.6892C40.6088 15.7965 40.8955 15.7813 41.2121 15.6436C41.536 15.5028 41.7405 15.3088 41.8257 15.0617C41.915 14.804 41.886 14.5058 41.7388 14.1672C41.5627 13.7623 41.3299 13.4783 41.0402 13.3154C40.7473 13.1451 40.4065 12.9956 40.0179 12.8669L37.9398 12.1947C37.5333 12.0651 37.1945 11.8798 36.9234 11.6387C36.6491 11.3903 36.4143 11.0416 36.219 10.5925C35.9341 9.93724 35.901 9.34762 36.1196 8.82361C36.3382 8.29961 36.7715 7.89677 37.4194 7.61508C37.7728 7.46143 38.1028 7.37485 38.4094 7.35532C38.7202 7.32523 39.0056 7.36749 39.2655 7.48208C39.5328 7.59348 39.782 7.77401 40.0131 8.02369C40.2484 8.2628 40.4693 8.56946 40.6757 8.94365L39.7404 9.69172C39.5903 9.40683 39.4293 9.15732 39.2574 8.94317C39.0823 8.72166 38.8781 8.5741 38.6447 8.50047C38.4155 8.41629 38.1463 8.44142 37.8371 8.57586C37.5279 8.7103 37.3217 8.9006 37.2187 9.14675C37.1198 9.38235 37.1407 9.66211 37.2816 9.98605C37.4 10.2585 37.5418 10.4638 37.707 10.6021C37.8795 10.7372 38.1089 10.8519 38.395 10.9463L40.4842 11.6138C40.9509 11.761 41.4027 11.9847 41.8396 12.285C42.2733 12.5779 42.6118 13.0041 42.8551 13.5636C43.0472 14.0054 43.1216 14.4282 43.0784 14.8322C43.032 15.2288 42.8836 15.5822 42.6333 15.8923C42.3903 16.1993 42.059 16.444 41.6394 16.6265Z" fill="#B68C2D"/>
<path d="M46.8132 14.8338C46.1372 15.0315 45.5795 15.0487 45.1399 14.8854C44.7003 14.7221 44.3444 14.4177 44.0723 13.9719C43.798 13.5186 43.5654 12.9654 43.3745 12.3126L41.5653 6.12567L42.8096 5.76182L44.6356 12.0063C44.7524 12.4057 44.886 12.7627 45.0363 13.0772C45.1867 13.3918 45.3783 13.6193 45.6111 13.7596C45.8516 13.8977 46.1523 13.914 46.5133 13.8084C46.882 13.7006 47.1266 13.5249 47.2471 13.2812C47.3676 13.0375 47.4064 12.7427 47.3636 12.3967C47.3208 12.0507 47.241 11.678 47.1242 11.2786L45.2982 5.0341L46.531 4.67362L48.3401 10.8605C48.5311 11.5134 48.6331 12.1047 48.6463 12.6344C48.6572 13.1565 48.5215 13.6047 48.2391 13.9791C47.9644 14.3513 47.4891 14.6362 46.8132 14.8338Z" fill="#B68C2D"/>
<path d="M50.3342 13.7702L48.8758 4.14445L49.7908 4.0058L53.4928 9.98508L52.5241 3.59168L53.6411 3.42242L55.0996 13.0482L54.2439 13.1778L50.4794 7.02569L51.4751 13.5974L50.3342 13.7702Z" fill="#B68C2D"/>
<path d="M58.6102 12.9795C58.0504 12.9992 57.5784 12.8956 57.194 12.6689C56.8177 12.4419 56.5262 12.1198 56.3194 11.7027C56.1125 11.2856 55.9833 10.7976 55.9317 10.2389L57.1199 9.87292C57.156 10.216 57.2196 10.546 57.3108 10.8631C57.41 11.18 57.5593 11.439 57.7585 11.6402C57.9575 11.8334 58.2289 11.9239 58.5728 11.9119C58.9247 11.8995 59.1852 11.7943 59.3544 11.5962C59.5314 11.3898 59.6134 11.1026 59.6004 10.7347C59.585 10.2949 59.4727 9.9465 59.2635 9.6896C59.054 9.4247 58.7925 9.16162 58.4791 8.90037L56.7971 7.51807C56.4674 7.24938 56.2208 6.95376 56.0573 6.63119C55.8936 6.30063 55.8031 5.89142 55.786 5.40357C55.761 4.69179 55.9456 4.1328 56.3397 3.72661C56.7338 3.32042 57.2828 3.10497 57.9866 3.08027C58.3705 3.0668 58.7082 3.10699 58.9997 3.20086C59.299 3.28644 59.5483 3.42983 59.7475 3.63103C59.9547 3.83195 60.12 4.0904 60.2432 4.40637C60.3741 4.71406 60.4669 5.07914 60.5218 5.50161L59.3811 5.85393C59.3459 5.53487 59.2877 5.24465 59.2064 4.98325C59.1249 4.71386 58.9894 4.50242 58.7998 4.34893C58.618 4.18715 58.3591 4.11216 58.0232 4.12395C57.6873 4.13574 57.4266 4.23697 57.2411 4.42765C57.0634 4.61005 56.9806 4.8772 56.993 5.22909C57.0034 5.525 57.0599 5.76724 57.1626 5.95581C57.2733 6.1441 57.4442 6.33429 57.6751 6.52637L59.3691 7.90825C59.7482 8.21524 60.0856 8.58775 60.3812 9.02579C60.6766 9.45583 60.8349 9.97476 60.8563 10.5826C60.8731 11.0624 60.7877 11.4818 60.6002 11.8407C60.4123 12.1916 60.1456 12.4652 59.8002 12.6615C59.4628 12.8575 59.0661 12.9635 58.6102 12.9795Z" fill="#B68C2D"/>
<path d="M61.6826 12.8518L62.3558 3.15219L66.1159 3.41314L66.0461 4.41903L63.6391 4.25199L63.4164 7.46126L65.3683 7.59672L65.3018 8.55471L63.3499 8.41925L63.1031 11.9758L65.534 12.1445L65.4667 13.1145L61.6826 12.8518Z" fill="#B68C2D"/>
<path d="M67.3751 13.4207L68.8465 4.83114L67.2256 4.55349L67.3958 3.55965L71.9272 4.33585L71.757 5.32969L70.1834 5.06015L68.7121 13.6497L67.3751 13.4207Z" fill="#B68C2D"/>
<path d="M75.6302 15.5525C75.0981 15.3676 74.6929 15.0991 74.4149 14.7469C74.1444 14.3974 73.9879 13.9894 73.9454 13.5231C73.9029 13.0568 73.9589 12.5523 74.1133 12.0096L75.3606 12.0978C75.2699 12.4326 75.2097 12.7653 75.1801 13.0958C75.1581 13.429 75.204 13.726 75.3178 13.9871C75.4342 14.2405 75.6559 14.424 75.9828 14.5376C76.3173 14.6538 76.5999 14.6497 76.8305 14.5253C77.0714 14.396 77.2525 14.1565 77.374 13.8068C77.5193 13.3887 77.5404 13.0211 77.4375 12.7042C77.3372 12.3797 77.1876 12.0381 76.9885 11.6793L75.9129 9.77211C75.7013 9.40039 75.5773 9.0336 75.5412 8.67173C75.5076 8.30225 75.5714 7.88565 75.7325 7.4219C75.9675 6.7453 76.3436 6.28808 76.8607 6.05024C77.3778 5.81241 77.9709 5.80969 78.6399 6.04208C79.0048 6.16884 79.307 6.32917 79.5463 6.52307C79.7959 6.71201 79.9776 6.93699 80.0914 7.19804C80.2128 7.46172 80.2739 7.76409 80.2747 8.10515C80.2857 8.44126 80.2403 8.81737 80.1383 9.2335L78.9406 9.14972C79.0234 8.8377 79.0742 8.54437 79.0929 8.26972C79.1143 7.98748 79.064 7.73996 78.9419 7.52718C78.8301 7.30943 78.6146 7.1451 78.2953 7.03418C77.976 6.92327 77.6947 6.92355 77.4516 7.03503C77.2186 7.14154 77.044 7.36205 76.9278 7.69655C76.8301 7.97783 76.7952 8.22555 76.823 8.4397C76.8585 8.65648 76.9496 8.89688 77.0965 9.16088L78.1834 11.072C78.4275 11.4976 78.6086 11.9694 78.7268 12.4876C78.8477 12.9981 78.8077 13.5423 78.607 14.1201C78.4486 14.5762 78.2162 14.9385 77.91 15.207C77.6064 15.4679 77.2569 15.6277 76.8617 15.6863C76.4741 15.7476 76.0636 15.703 75.6302 15.5525Z" fill="#B68C2D"/>
<path d="M80.654 17.7018C80.0634 17.4131 79.648 17.0672 79.4078 16.6642C79.1676 16.2612 79.0757 15.8103 79.1322 15.3114C79.1922 14.8053 79.3631 14.2642 79.6447 13.688L81.2662 10.3714C81.5479 9.79522 81.8647 9.33884 82.2167 9.00226C82.5793 8.66199 82.9863 8.46833 83.4377 8.42128C83.8997 8.37054 84.4261 8.48954 85.0166 8.77827C85.6072 9.067 86.0208 9.4075 86.2573 9.79978C86.4939 10.1921 86.5874 10.6304 86.538 11.1149C86.4957 11.6029 86.3338 12.135 86.0521 12.7112L84.4253 16.0386C84.1472 16.6076 83.825 17.0658 83.4588 17.4132C83.0998 17.7642 82.6894 17.9741 82.2275 18.0427C81.7691 18.1042 81.2446 17.9905 80.654 17.7018ZM81.1241 16.7403C81.4482 16.8988 81.7247 16.9537 81.9538 16.905C82.1863 16.8492 82.3895 16.7165 82.5633 16.507C82.7407 16.2903 82.9085 16.0199 83.067 15.6958L84.942 11.8606C85.1004 11.5365 85.2072 11.2451 85.2622 10.9865C85.3208 10.7206 85.2972 10.486 85.1914 10.2826C85.0891 10.0719 84.876 9.88741 84.5519 9.72896C84.2278 9.57051 83.9476 9.51386 83.7114 9.55899C83.4858 9.60044 83.2862 9.72592 83.1124 9.93543C82.9421 10.1377 82.7777 10.4009 82.6193 10.725L80.7443 14.5602C80.5858 14.8843 80.4756 15.1829 80.4135 15.4559C80.3549 15.7218 80.375 15.9636 80.4737 16.1814C80.5832 16.3956 80.8 16.5819 81.1241 16.7403Z" fill="#B68C2D"/>
<path d="M83.9037 19.2247L89.2514 11.0574L90.8949 12.1335C91.4394 12.49 91.8414 12.8588 92.1008 13.24C92.3647 13.6144 92.475 14.018 92.4318 14.4507C92.3997 14.8811 92.2142 15.3551 91.8753 15.8727C91.6684 16.1886 91.4455 16.4556 91.2067 16.6738C90.9722 16.8852 90.7216 17.0333 90.4549 17.1179C90.1925 17.1959 89.914 17.1959 89.6192 17.1182L88.0983 21.9711L86.9992 21.2515L88.4392 16.7201L87.5519 16.1391L85.0431 19.9707L83.9037 19.2247ZM88.0867 15.3224L88.5202 15.6063C88.8429 15.8176 89.1315 15.9489 89.3859 16.0003C89.6404 16.0516 89.8785 16.0107 90.1003 15.8773C90.322 15.744 90.5473 15.5026 90.7762 15.153C91.0887 14.6758 91.2258 14.2757 91.1875 13.9529C91.1535 13.6234 90.8778 13.2891 90.3602 12.9502L89.856 12.6201L88.0867 15.3224Z" fill="#B68C2D"/>
<path d="M88.7964 22.6247L94.998 15.1362L97.9009 17.5403L97.2578 18.3169L95.3996 16.778L93.3477 19.2556L94.8546 20.5036L94.2421 21.2432L92.7352 19.9952L90.4613 22.741L92.338 24.2952L91.7178 25.0441L88.7964 22.6247Z" fill="#B68C2D"/>
<path d="M92.3139 25.5818L99.3151 18.8349L99.9565 19.5005L97.2221 25.9697L101.872 21.4885L102.655 22.301L95.654 29.0478L95.0543 28.4255L97.8934 21.8054L93.1136 26.4115L92.3139 25.5818Z" fill="#B68C2D"/>
<path d="M97.0801 30.8661L104.003 25.573L103.004 24.2666L103.805 23.6542L106.598 27.3064L105.797 27.9189L104.827 26.6506L97.904 31.9437L97.0801 30.8661Z" fill="#B68C2D"/>
<path d="M100.469 36.0222C100.135 35.4579 99.9775 34.9418 99.9977 34.474C100.018 34.0062 100.188 33.5796 100.509 33.1943C100.836 32.8049 101.275 32.4469 101.825 32.1204L104.995 30.241C105.545 29.9145 106.059 29.7072 106.537 29.6191C107.026 29.5338 107.472 29.5951 107.874 29.803C108.288 30.0137 108.662 30.4012 108.996 30.9656C109.331 31.5299 109.49 32.0405 109.472 32.4974C109.455 32.9542 109.293 33.3712 108.986 33.7484C108.684 34.1324 108.257 34.4877 107.707 34.8142L104.527 36.6997C103.983 37.0222 103.464 37.2281 102.968 37.3174C102.476 37.4137 102.019 37.364 101.596 37.1684C101.179 36.9686 100.804 36.5866 100.469 36.0222ZM101.388 35.4774C101.572 35.7871 101.772 35.9844 101.99 36.0692C102.215 36.1499 102.457 36.1505 102.717 36.0709C102.983 35.9872 103.272 35.8535 103.581 35.6698L107.246 33.4965C107.556 33.3129 107.804 33.1282 107.992 32.9426C108.186 32.7528 108.295 32.5441 108.318 32.3165C108.348 32.0847 108.272 31.814 108.088 31.5043C107.904 31.1946 107.701 30.9939 107.48 30.9022C107.269 30.8133 107.033 30.8086 106.774 30.8883C106.521 30.9638 106.24 31.0934 105.93 31.2771L102.265 33.4503C101.955 33.634 101.7 33.8227 101.499 34.0165C101.304 34.2063 101.188 34.4191 101.152 34.6549C101.126 34.8935 101.204 35.1677 101.388 35.4774Z" fill="#B68C2D"/>
<path d="M103.389 41.3643L112.5 37.9688L113.183 39.8022C113.409 40.4096 113.514 40.9427 113.497 41.4016C113.488 41.8577 113.338 42.2466 113.048 42.5682C112.768 42.8945 112.34 43.1653 111.762 43.3805C111.41 43.5118 111.073 43.5945 110.753 43.6285C110.44 43.6597 110.152 43.6306 109.888 43.5411C109.631 43.4487 109.408 43.2844 109.217 43.048L105.133 46.0434L104.676 44.8174L108.506 42.0322L108.137 41.0424L103.862 42.6353L103.389 41.3643ZM109.048 40.7028L109.228 41.1865C109.362 41.5464 109.516 41.8221 109.69 42.0135C109.864 42.2049 110.079 42.3126 110.336 42.3365C110.592 42.3605 110.915 42.2998 111.305 42.1544C111.838 41.956 112.184 41.716 112.344 41.4344C112.511 41.15 112.487 40.7191 112.272 40.1417L112.062 39.5793L109.048 40.7028Z" fill="#B68C2D"/>
<path d="M105.354 46.9816L114.785 44.6481L115.69 48.3042L114.712 48.5462L114.133 46.2058L111.012 46.9779L111.482 48.8758L110.55 49.1063L110.081 47.2083L106.623 48.064L107.207 50.4276L106.264 50.661L105.354 46.9816Z" fill="#B68C2D"/>
<path d="M106.642 53.7612C106.564 53.2066 106.617 52.7264 106.802 52.3204C106.988 51.9224 107.278 51.5986 107.671 51.3491C108.064 51.0995 108.536 50.9197 109.086 50.8096L109.575 51.9526C109.237 52.0245 108.916 52.1225 108.61 52.2466C108.305 52.3785 108.064 52.5542 107.885 52.7734C107.713 52.9916 107.652 53.271 107.7 53.6116C107.749 53.9602 107.881 54.2082 108.096 54.3556C108.32 54.5098 108.614 54.5612 108.979 54.5096C109.414 54.448 109.749 54.2997 109.982 54.0647C110.224 53.8285 110.458 53.5409 110.685 53.2017L111.882 51.3839C112.114 51.0278 112.382 50.7515 112.686 50.555C112.997 50.3574 113.395 50.2245 113.878 50.1561C114.583 50.0564 115.158 50.1811 115.604 50.5303C116.049 50.8794 116.321 51.4026 116.42 52.0998C116.473 52.48 116.469 52.8201 116.406 53.1198C116.353 53.4264 116.236 53.6893 116.057 53.9086C115.879 54.1358 115.64 54.3273 115.338 54.483C115.046 54.6455 114.693 54.7763 114.279 54.8753L113.808 53.7781C114.122 53.7095 114.404 53.6211 114.656 53.5128C114.915 53.4035 115.111 53.2464 115.244 53.0418C115.385 52.844 115.433 52.5787 115.386 52.246C115.339 51.9132 115.211 51.6647 115.002 51.5003C114.801 51.3427 114.527 51.2886 114.179 51.3379C113.885 51.3793 113.651 51.4611 113.474 51.583C113.298 51.7129 113.127 51.9027 112.96 52.1526L111.765 53.9823C111.499 54.3916 111.164 54.7662 110.76 55.1062C110.363 55.4451 109.864 55.6571 109.262 55.7423C108.787 55.8095 108.361 55.7687 107.984 55.62C107.615 55.4701 107.315 55.2337 107.084 54.9109C106.853 54.596 106.706 54.2128 106.642 53.7612Z" fill="#B68C2D"/>
<path d="M107.11 57.8685L115.82 57.6008L115.77 55.9571L116.777 55.9261L116.919 60.5214L115.911 60.5523L115.862 58.9566L107.151 59.2242L107.11 57.8685Z" fill="#B68C2D"/>
<path d="M107.217 60.8132L116.766 63.5727L116.672 64.8778L106.825 66.2488L106.917 64.9677L109.392 64.7011L109.534 62.7256L107.126 62.0823L107.217 60.8132ZM110.491 62.9752L110.374 64.5915L114.803 64.0929L110.491 62.9752Z" fill="#B68C2D"/>
<path d="M106.137 69.2563C106.274 68.5655 106.516 68.063 106.864 67.7486C107.212 67.4343 107.647 67.2594 108.168 67.2242C108.697 67.1905 109.295 67.2399 109.962 67.3724L116.284 68.6277L116.032 69.8993L109.65 68.6322C109.242 68.5512 108.864 68.5046 108.516 68.4926C108.167 68.4805 107.877 68.5453 107.645 68.6868C107.411 68.8363 107.258 69.0954 107.184 69.4643C107.11 69.8411 107.152 70.1392 107.313 70.3587C107.473 70.5782 107.717 70.7489 108.043 70.8709C108.37 70.9929 108.737 71.0944 109.145 71.1754L115.527 72.4424L115.277 73.7022L108.954 72.4469C108.287 72.3144 107.716 72.1316 107.24 71.8984C106.772 71.6668 106.437 71.3393 106.235 70.9158C106.032 70.5002 105.999 69.947 106.137 69.2563Z" fill="#B68C2D"/>
<path d="M105.461 72.8792L114.698 75.9905L114.072 77.8493C113.864 78.4651 113.609 78.9463 113.306 79.2929C113.011 79.642 112.649 79.8502 112.22 79.9173C111.796 79.9946 111.291 79.9347 110.706 79.7375C110.349 79.6171 110.035 79.469 109.764 79.2931C109.5 79.1198 109.294 78.9149 109.145 78.6785C109.004 78.4447 108.934 78.1756 108.935 77.8712L103.863 77.623L104.282 76.3801L109.022 76.6309L109.36 75.6274L105.027 74.1678L105.461 72.8792ZM110.284 75.9386L110.119 76.4289C109.996 76.7938 109.942 77.1057 109.956 77.3645C109.971 77.6233 110.07 77.843 110.255 78.0237C110.439 78.2044 110.729 78.3613 111.125 78.4945C111.664 78.6763 112.085 78.7081 112.388 78.5898C112.698 78.4741 112.951 78.1236 113.148 77.5382L113.34 76.968L110.284 75.9386Z" fill="#B68C2D"/>
<path d="M103.683 77.9762L111.558 84.0407L110.993 85.2206L101.327 82.8905L101.883 81.7323L104.283 82.3902L105.139 80.6042L103.133 79.1236L103.683 77.9762ZM105.938 81.1869L105.237 82.6481L109.541 83.8059L105.938 81.1869Z" fill="#B68C2D"/>
<path d="M101.017 83.3928L109.207 88.6341L108.709 89.4126L101.781 88.2567L107.22 91.738L106.612 92.6883L98.4227 87.447L98.8886 86.7191L105.987 87.9417L100.396 84.3634L101.017 83.3928Z" fill="#B68C2D"/>
<path d="M97.0179 89.2839L103.815 94.7742L104.851 93.4915L105.638 94.1267L102.742 97.7127L101.955 97.0775L102.961 95.8322L96.1634 90.3419L97.0179 89.2839Z" fill="#B68C2D"/>
<path d="M62.4563 56.3251C62.4848 55.9067 62.5388 55.4904 62.6179 55.0785C62.6855 54.7279 62.7718 54.3812 62.8764 54.0397C62.9851 53.6074 63.1399 53.1879 63.3381 52.7886C63.6354 52.2023 64.0252 51.6676 64.4923 51.205C65.5227 50.176 66.8792 49.5378 68.3289 49.3999H68.4581C69.319 49.3147 70.1529 49.0525 70.9076 48.6299C71.6624 48.2072 72.3216 47.6332 72.8441 46.9437C72.5568 47.9978 72.1639 49.0202 71.6714 49.9954C71.4914 50.3555 71.2975 50.7018 71.0851 51.0527C70.8727 51.4035 70.6973 51.6667 70.4895 51.976C69.9415 52.7627 69.3234 53.4983 68.6428 54.1736C68.2302 54.5891 67.7956 54.982 67.3409 55.3509C68.2031 55.1919 69.0411 54.9218 69.8339 54.5476C68.3153 56.0411 66.36 57.0114 64.2522 57.3177C64.0352 57.35 63.8182 57.3685 63.6013 57.3915C63.5755 56.5364 63.7261 55.6852 64.0439 54.8908C64.3616 54.0965 64.8396 53.3762 65.448 52.7747C65.6831 52.5381 65.938 52.3218 66.2097 52.1284C65.4291 52.4444 64.7208 52.9156 64.1276 53.5134C63.6374 54.0007 63.2332 54.5673 62.9318 55.1893C62.8494 55.3532 62.7754 55.5211 62.7102 55.6926C62.614 55.8986 62.5293 56.1097 62.4563 56.3251ZM47.1793 73.1164C47.3546 72.8861 47.5442 72.6671 47.7471 72.4608C48.7729 71.4338 50.1248 70.797 51.5699 70.6602H51.6714C52.7149 70.5555 53.7154 70.1903 54.5809 69.5982C55.4465 69.0061 56.1495 68.2061 56.6253 67.2715C56.8255 66.873 56.9803 66.4534 57.0869 66.0203C57.1937 65.6795 57.28 65.3327 57.3455 64.9816C57.4246 64.5697 57.4785 64.1534 57.5071 63.735C57.4471 63.9566 57.3732 64.1967 57.2947 64.3999C57.2303 64.5731 57.1564 64.7427 57.0731 64.9077C56.77 65.5273 56.3659 66.0921 55.8773 66.579C55.281 67.1751 54.5715 67.6461 53.7905 67.964C54.0619 67.7664 54.3181 67.5488 54.5569 67.3131C55.2853 66.5856 55.8229 65.6896 56.122 64.7046C56.3171 64.0536 56.4059 63.3755 56.3852 62.6963C56.1728 62.6963 55.9512 62.7378 55.7342 62.7701C53.6277 63.0764 51.6739 64.0468 50.1571 65.5402C50.948 65.1609 51.7867 64.8906 52.6502 64.7369C52.1919 65.1016 51.7556 65.4932 51.3436 65.9095C50.6641 66.5858 50.0461 67.3213 49.4969 68.1071C49.2845 68.4072 49.086 68.7119 48.8967 69.0305C48.7074 69.3491 48.4905 69.7276 48.3104 70.0831C47.8191 71.0605 47.4263 72.0843 47.1377 73.1395L47.1793 73.1164ZM46.9115 47.2023C47.6015 47.7252 48.1759 48.3852 48.5985 49.1408C49.0212 49.8964 49.2831 50.7312 49.3676 51.5928C49.3654 51.6251 49.3654 51.6575 49.3676 51.6898C49.5048 53.1293 50.1419 54.4754 51.1682 55.494C51.9504 56.2809 52.9293 56.8437 54.0029 57.1238C54.3444 57.2268 54.6912 57.3116 55.0417 57.3777C55.4551 57.4568 55.8729 57.5107 56.2929 57.5393C56.0657 57.4818 55.8422 57.4109 55.6234 57.3269C55.452 57.2617 55.284 57.1877 55.1202 57.1053C53.7335 56.4242 52.6469 55.2553 52.0685 53.8228C52.2661 54.0941 52.4837 54.3503 52.7194 54.5891C53.4469 55.3175 54.3429 55.8551 55.3279 56.1542C55.9784 56.3518 56.6569 56.4407 57.3363 56.4174C57.3363 56.205 57.2947 55.9834 57.2624 55.771C56.9571 53.6629 55.9866 51.7074 54.4923 50.1893C54.8674 50.9819 55.1374 51.82 55.2956 52.6824C54.9281 52.2251 54.5351 51.7888 54.1183 51.3758C53.4437 50.6963 52.7098 50.0783 51.9254 49.5291C51.6253 49.3167 51.3159 49.1182 51.002 48.9289C50.6881 48.7396 50.3049 48.5273 49.9447 48.3426C48.9693 47.8506 47.9469 47.4577 46.893 47.1699L46.9115 47.2023ZM64.6631 63.8689C64.0125 63.6722 63.3343 63.5817 62.6548 63.6011C62.6548 63.8181 62.6964 64.0351 62.7287 64.2521C63.034 66.3602 64.0045 68.3158 65.4988 69.8338C65.1237 69.0413 64.8536 68.2032 64.6954 67.3408C65.0638 67.7959 65.4552 68.232 65.8681 68.6473C66.5444 69.3269 67.2798 69.9449 68.0657 70.494C68.3658 70.7064 68.6705 70.9049 68.9891 71.0942C69.3076 71.2835 69.6862 71.4959 70.0417 71.6759C71.0181 72.1707 72.0421 72.5651 73.098 72.8532C72.8678 72.6779 72.6488 72.4883 72.4424 72.2854C71.4164 71.259 70.7798 69.9073 70.6419 68.4626C70.6419 68.4303 70.6419 68.3934 70.6419 68.3611C70.5158 67.0899 70.0036 65.8879 69.1741 64.9164C68.3446 63.945 67.2377 63.2508 66.002 62.9271C65.6619 62.8246 65.3167 62.7398 64.9678 62.6732C64.5548 62.5918 64.1368 62.5378 63.7167 62.5116C63.9425 62.5684 64.1645 62.6393 64.3815 62.7239C64.5548 62.7883 64.7243 62.8623 64.8893 62.9456C66.2747 63.6263 67.361 64.7931 67.9411 66.2235C67.7446 65.9527 67.5269 65.698 67.2901 65.4617C66.564 64.7111 65.6606 64.1553 64.6631 63.8458V63.8689ZM41.6807 60.2124C41.9668 60.1736 42.2552 60.1535 42.544 60.1524C43.9947 60.1504 45.4006 60.655 46.5191 61.579L46.5929 61.6436C47.7098 62.5629 49.1122 63.0641 50.5588 63.061C51.6672 63.0579 52.7551 62.7616 53.7121 62.2022C54.0305 62.0376 54.3388 61.8541 54.6354 61.6528C54.9836 61.4169 55.3167 61.1594 55.6326 60.8818C55.4317 61.0008 55.2235 61.1072 55.0094 61.2004C54.8432 61.2743 54.6724 61.3435 54.4969 61.4035C53.0352 61.9032 51.4405 61.8457 50.0186 61.242C50.3485 61.2938 50.6819 61.3201 51.0158 61.3204C52.0445 61.3213 53.0576 61.0692 53.966 60.5864C54.5646 60.2628 55.1084 59.8468 55.5772 59.3537C55.411 59.2106 55.2402 59.0767 55.0648 58.9428C53.3592 57.6699 51.2926 56.973 49.1645 56.9529C49.9818 57.2515 50.7576 57.6533 51.4729 58.1487C50.8901 58.0876 50.3045 58.0568 49.7185 58.0564C48.7605 58.0569 47.8044 58.1404 46.8607 58.3057C46.5006 58.3703 46.1405 58.4442 45.785 58.5319C45.4295 58.6196 45.0094 58.7396 44.6262 58.8643C43.6026 59.2065 42.6158 59.6504 41.6807 60.1893V60.2124ZM64.9724 58.8274C65.1433 58.7535 65.3141 58.6842 65.4895 58.6242C66.9512 58.1246 68.5459 58.1821 69.9678 58.7858C69.6379 58.7339 69.3045 58.7077 68.9706 58.7073C68.1158 58.7061 67.2699 58.8804 66.4853 59.2195C65.7006 59.5586 64.994 60.0553 64.4092 60.6787C64.5754 60.8172 64.7462 60.9511 64.9217 61.085C66.6262 62.3599 68.6934 63.057 70.8219 63.0748C69.9954 62.781 69.2114 62.3789 68.4905 61.8791C69.0733 61.9402 69.6588 61.9711 70.2448 61.9714C71.2029 61.973 72.1593 61.8895 73.1026 61.7221C73.4627 61.6621 73.8182 61.5836 74.1737 61.4959C74.5292 61.4082 74.954 61.2881 75.3326 61.1635C76.3723 60.8229 77.3747 60.3774 78.3242 59.8338C78.0383 59.875 77.7498 59.895 77.4609 59.8938C76.01 59.8966 74.6039 59.3919 73.4858 58.4673L73.412 58.4026C72.5992 57.7399 71.6335 57.2913 70.6028 57.0977C69.5722 56.9042 68.5095 56.9719 67.5117 57.2946C67.0867 57.4329 66.678 57.6172 66.2928 57.844C65.9744 58.0086 65.6661 58.1921 65.3695 58.3934C65.0213 58.6293 64.6882 58.8868 64.3723 59.1644C64.5656 59.0335 64.766 58.9133 64.9724 58.8043V58.8274ZM58.1442 68.5227C58.0807 69.1053 58.0499 69.691 58.0519 70.277C58.0503 71.2351 58.1337 72.1915 58.3012 73.1348C58.3612 73.495 58.4397 73.8504 58.5274 74.2059C58.6151 74.5614 58.7351 74.9862 58.8598 75.3648C59.2012 76.4042 59.6467 77.4065 60.1894 78.3565C60.1485 78.0705 60.1284 77.782 60.1294 77.4931C60.1272 76.0409 60.6317 74.6335 61.556 73.5134C61.5762 73.4861 61.5977 73.4599 61.6206 73.4349C62.2834 72.6222 62.732 71.6565 62.9255 70.6258C63.1191 69.5952 63.0514 68.5324 62.7287 67.5347C62.5921 67.109 62.4078 66.7001 62.1793 66.3158C62.0134 65.9981 61.83 65.6898 61.6299 65.3925C61.3929 65.0451 61.1354 64.7121 60.8589 64.3952C60.9758 64.5984 61.082 64.8061 61.1774 65.0185C61.2513 65.1847 61.3206 65.3601 61.3806 65.5356C61.8802 66.9973 61.8227 68.592 61.219 70.0139C61.2711 69.6825 61.2973 69.3475 61.2975 69.012C61.2981 68.158 61.1234 67.313 60.7843 66.5292C60.4453 65.7454 59.9489 65.0395 59.3261 64.4553C59.1876 64.6215 59.0537 64.7923 58.9198 64.9631C57.6454 66.6697 56.9484 68.7382 56.93 70.868C57.2242 70.0237 57.6328 69.2237 58.1442 68.4903V68.5227ZM59.8155 41.7083C59.8542 41.9944 59.8742 42.2828 59.8755 42.5716C59.878 44.0246 59.3716 45.4327 58.4443 46.5513L58.375 46.6298C57.7123 47.4416 57.2637 48.4066 57.0701 49.4365C56.8766 50.4664 56.9443 51.5284 57.267 52.5254C57.4064 52.9515 57.5906 53.3616 57.8164 53.7489C57.982 54.0677 58.167 54.3761 58.3704 54.6722C58.606 55.0207 58.8635 55.3537 59.1414 55.6695C59.0209 55.4686 58.913 55.2604 58.8182 55.0462C58.7444 54.88 58.6797 54.7092 58.6151 54.5337C58.1216 53.0696 58.1791 51.4757 58.7767 50.0508C58.7248 50.3823 58.6986 50.7172 58.6982 51.0527C58.6976 51.9067 58.8722 52.7517 59.2113 53.5355C59.5504 54.3193 60.0467 55.0252 60.6696 55.6095C60.8127 55.4432 60.9466 55.277 61.0759 55.1016C62.3493 53.3963 63.0463 51.3296 63.0657 49.2013C62.7694 50.0196 62.3674 50.7956 61.8699 51.5097C61.9335 50.9271 61.9643 50.3414 61.9623 49.7553C61.963 48.7975 61.8812 47.8413 61.7176 46.8975C61.653 46.5374 61.5745 46.1819 61.4868 45.8264C61.399 45.471 61.279 45.0462 61.1544 44.6676C60.8086 43.6284 60.3601 42.6262 59.8155 41.6759V41.7083Z" fill="url(#paint0_linear_1_1277)"/>
<defs>
<linearGradient id="paint0_linear_1_1277" x1="60.0001" y1="41.9622" x2="60.0001" y2="78.6058" gradientUnits="userSpaceOnUse">
<stop stop-color="#EE4224"/>
<stop offset="0.06" stop-color="#E55025"/>
<stop offset="0.25" stop-color="#D56A27"/>
<stop offset="0.44" stop-color="#C87929"/>
<stop offset="0.63" stop-color="#BF822B"/>
<stop offset="0.82" stop-color="#BA882C"/>
<stop offset="1" stop-color="#B88A2D"/>
</linearGradient>
</defs>
</svg>
