<svg width="32" height="32" viewBox="0 0 32 32" fill="none" xmlns="http://www.w3.org/2000/svg">
<path d="M16 0C7.17675 0 0 7.17675 0 16C0 24.8233 7.17675 32 16 32C24.8233 32 32 24.8233 32 16C32 7.17675 24.8233 0 16 0ZM16 30.9343C7.7655 30.9343 1.06574 24.2345 1.06574 16C1.06574 7.7655 7.7655 1.06574 16 1.06574C24.2345 1.06574 30.9343 7.7655 30.9343 16C30.9343 24.2345 24.2345 30.9343 16 30.9343Z" fill="white"/>
<path d="M14.4294 23.9491H17.3532V16.6646H19.798L20.1672 13.8306H17.3532V12.0145C17.3532 11.1962 17.5827 10.6374 18.7602 10.6374H20.267V8.0928C20.0075 8.06286 19.1194 7.98303 18.0816 7.98303C15.9063 7.98303 14.4294 9.31021 14.4294 11.7351V13.8306H11.9746V16.6646H14.4294V23.9491Z" fill="white"/>
</svg>
