<svg width="32" height="32" viewBox="0 0 32 32" fill="none" xmlns="http://www.w3.org/2000/svg">
<g clip-path="url(#clip0_324_1694)">
<path d="M15.9998 -0.0340576C7.15782 -0.0340576 -0.0341797 7.15794 -0.0341797 15.9999C-0.0341797 24.8419 7.15782 32.0339 15.9998 32.0339C24.8418 32.0339 32.0338 24.8419 32.0338 15.9999C32.0338 7.15794 24.8418 -0.0340576 15.9998 -0.0340576ZM15.9998 30.9659C7.74782 30.9659 1.03382 24.2519 1.03382 15.9999C1.03382 7.74794 7.74782 1.03394 15.9998 1.03394C24.2518 1.03394 30.9658 7.74794 30.9658 15.9999C30.9658 24.2519 24.2518 30.9659 15.9998 30.9659Z" fill="white"/>
<g clip-path="url(#clip1_324_1694)">
<path d="M16.5983 22.0001H13.9316V14.0001H16.5983V15.3334C16.879 14.9763 17.2353 14.6857 17.6416 14.4825C18.0479 14.2793 18.4941 14.1685 18.9483 14.1581C19.7426 14.1625 20.5027 14.4817 21.0619 15.0457C21.6212 15.6097 21.9339 16.3725 21.9316 17.1668V22.0001H19.265V17.5001C19.2134 17.1398 19.0334 16.8103 18.7582 16.5722C18.4829 16.334 18.1309 16.2033 17.767 16.2041C17.6041 16.2093 17.4439 16.2473 17.296 16.3158C17.1482 16.3844 17.0157 16.4822 16.9066 16.6032C16.7975 16.7242 16.7139 16.8661 16.6609 17.0202C16.6079 17.1743 16.5866 17.3376 16.5983 17.5001V22.0001ZM12.5983 22.0001H9.93164V14.0001H12.5983V22.0001ZM11.265 12.6668C10.9114 12.6668 10.5722 12.5263 10.3222 12.2763C10.0721 12.0262 9.93164 11.6871 9.93164 11.3335C9.93164 10.9798 10.0721 10.6407 10.3222 10.3906C10.5722 10.1406 10.9114 10.0001 11.265 10.0001C11.6186 10.0001 11.9577 10.1406 12.2078 10.3906C12.4578 10.6407 12.5983 10.9798 12.5983 11.3335C12.5983 11.6871 12.4578 12.0262 12.2078 12.2763C11.9577 12.5263 11.6186 12.6668 11.265 12.6668Z" fill="white"/>
</g>
</g>
<defs>
<clipPath id="clip0_324_1694">
<rect width="32" height="32" fill="white"/>
</clipPath>
<clipPath id="clip1_324_1694">
<rect width="12" height="12" fill="white" transform="translate(9.93164 10.0001)"/>
</clipPath>
</defs>
</svg>
