<svg width="32" height="32" viewBox="0 0 32 32" fill="none" xmlns="http://www.w3.org/2000/svg">
<circle cx="16" cy="16" r="16" fill="#B68C2D"/>
<g clip-path="url(#clip0_641_1227)">
<path d="M16.1012 11.9343C15.2903 11.9343 14.4976 12.1748 13.8234 12.6253C13.1491 13.0758 12.6236 13.7161 12.3133 14.4653C12.003 15.2145 11.9218 16.0389 12.08 16.8342C12.2382 17.6295 12.6287 18.3601 13.2021 18.9335C13.7755 19.5068 14.506 19.8973 15.3013 20.0555C16.0967 20.2137 16.921 20.1325 17.6702 19.8222C18.4194 19.5119 19.0597 18.9864 19.5102 18.3122C19.9607 17.6379 20.2012 16.8452 20.2012 16.0343C20.2025 15.4955 20.0974 14.9618 19.8918 14.4638C19.6862 13.9657 19.3843 13.5132 19.0033 13.1322C18.6223 12.7513 18.1698 12.4493 17.6718 12.2437C17.1737 12.0381 16.64 11.933 16.1012 11.9343ZM16.1012 18.7043C15.5731 18.7043 15.0569 18.5477 14.6178 18.2543C14.1788 17.961 13.8365 17.544 13.6345 17.0561C13.4324 16.5682 13.3795 16.0314 13.4825 15.5134C13.5855 14.9955 13.8398 14.5197 14.2132 14.1463C14.5866 13.7729 15.0624 13.5186 15.5803 13.4156C16.0982 13.3126 16.6351 13.3655 17.123 13.5676C17.6109 13.7696 18.0279 14.1119 18.3212 14.5509C18.6146 14.99 18.7712 15.5062 18.7712 16.0343C18.7712 16.7424 18.4899 17.4216 17.9892 17.9223C17.4885 18.423 16.8093 18.7043 16.1012 18.7043ZM21.3312 11.7643C21.3312 11.9621 21.2726 12.1554 21.1627 12.3199C21.0528 12.4843 20.8966 12.6125 20.7139 12.6882C20.5312 12.7639 20.3301 12.7837 20.1361 12.7451C19.9421 12.7065 19.764 12.6113 19.6241 12.4714C19.4843 12.3316 19.389 12.1534 19.3504 11.9594C19.3118 11.7654 19.3316 11.5644 19.4073 11.3816C19.483 11.1989 19.6112 11.0427 19.7756 10.9328C19.9401 10.823 20.1334 10.7643 20.3312 10.7643C20.5964 10.7643 20.8508 10.8697 21.0383 11.0572C21.2259 11.2447 21.3312 11.4991 21.3312 11.7643ZM24.0412 12.7643C24.0703 11.5211 23.6066 10.3169 22.7512 9.41432C21.8534 8.548 20.6486 8.07327 19.4012 8.09432C18.1012 8.03432 14.1012 8.03432 12.8012 8.09432C11.5584 8.06741 10.355 8.53082 9.45121 9.38432C8.59584 10.2869 8.13212 11.4911 8.16121 12.7343C8.10121 14.0343 8.10121 18.0343 8.16121 19.3343C8.13212 20.5775 8.59584 21.7817 9.45121 22.6843C10.355 23.5378 11.5584 24.0012 12.8012 23.9743C14.1212 24.0543 18.0812 24.0543 19.4012 23.9743C20.6444 24.0034 21.8486 23.5397 22.7512 22.6843C23.6066 21.7817 24.0703 20.5775 24.0412 19.3343C24.1012 18.0343 24.1012 14.0343 24.0412 12.7343V12.7643ZM22.3412 20.7643C22.2054 21.1083 22.0005 21.4206 21.739 21.6821C21.4775 21.9436 21.1651 22.1485 20.8212 22.2843C19.2688 22.5982 17.6818 22.7058 16.1012 22.6043C14.524 22.7059 12.9402 22.5983 11.3912 22.2843C11.0473 22.1485 10.7349 21.9436 10.4734 21.6821C10.212 21.4206 10.007 21.1083 9.87121 20.7643C9.45121 19.7043 9.54121 17.2043 9.54121 16.0443C9.54121 14.8843 9.45121 12.3743 9.87121 11.3243C10.0032 10.977 10.2067 10.6613 10.4685 10.3977C10.7304 10.1341 11.0448 9.92853 11.3912 9.79432C12.9402 9.48029 14.524 9.37269 16.1012 9.47432C17.6818 9.37286 19.2688 9.48046 20.8212 9.79432C21.1651 9.93009 21.4775 10.1351 21.739 10.3965C22.0005 10.658 22.2054 10.9704 22.3412 11.3143C22.7612 12.3743 22.6612 14.8743 22.6612 16.0343C22.6612 17.1943 22.7612 19.7043 22.3412 20.7543V20.7643Z" fill="white"/>
</g>
<defs>
<clipPath id="clip0_641_1227">
<rect width="16" height="16" fill="white" transform="translate(8.10156 8.03418)"/>
</clipPath>
</defs>
</svg>
