<svg width="32" height="32" viewBox="0 0 32 32" fill="none" xmlns="http://www.w3.org/2000/svg">
<path d="M16 0C7.17675 0 0 7.17675 0 16C0 24.8232 7.17675 32 16 32C24.8232 32 32 24.8232 32 16C32 7.17675 24.8232 0 16 0ZM16 31C7.7655 31 1 24.2345 1 16C1 7.7655 7.7655 1 16 1C24.2345 1 31 7.7655 31 16C31 24.2345 24.2345 31 16 31Z" fill="white"/>
<g clip-path="url(#clip0_324_1704)">
<path d="M23.1771 12.2332C23.0961 11.9327 22.9378 11.6586 22.718 11.4383C22.4982 11.218 22.2245 11.0591 21.9242 10.9774C20.8106 10.6716 16.3554 10.6666 16.3554 10.6666C16.3554 10.6666 11.901 10.6617 10.7867 10.9539C10.4866 11.0394 10.2134 11.2005 9.99353 11.4219C9.77362 11.6433 9.61431 11.9176 9.53091 12.2183C9.23722 13.3319 9.23438 15.6416 9.23438 15.6416C9.23438 15.6416 9.23153 17.9626 9.52309 19.0649C9.68664 19.6743 10.1666 20.1557 10.7768 20.32C11.9018 20.6257 16.3448 20.6307 16.3448 20.6307C16.3448 20.6307 20.7999 20.6357 21.9135 20.3441C22.2139 20.2626 22.4879 20.1041 22.7083 19.8842C22.9286 19.6643 23.0878 19.3907 23.17 19.0905C23.4644 17.9776 23.4666 15.6686 23.4666 15.6686C23.4666 15.6686 23.4808 13.3468 23.1771 12.2332ZM14.9304 17.7813L14.9339 13.5146L18.6367 15.6515L14.9304 17.7813Z" fill="white"/>
</g>
<defs>
<clipPath id="clip0_324_1704">
<rect width="14.9334" height="10.6667" fill="white" transform="translate(8.5332 10.6666)"/>
</clipPath>
</defs>
</svg>
